<svg version="1.1" xmlns="http://www.w3.org/2000/svg" viewBox="0 0 1899.2857142857144 469.9999999999999" width="1899.2857142857144" height="469.9999999999999">
  <!-- svg-source:excalidraw -->
  
  <defs>
    <style class="style-fonts">
      @font-face {
        font-family: "Virgil";
        src: url("https://excalidraw.com/Virgil.woff2");
      }
      @font-face {
        font-family: "Cascadia";
        src: url("https://excalidraw.com/Cascadia.woff2");
      }
      @font-face {
        font-family: "Assistant";
        src: url("https://excalidraw.com/Assistant-Regular.woff2");
      }
    </style>
    
  </defs>
  <rect x="0" y="0" width="1899.2857142857144" height="469.9999999999999" fill="#ffffff"></rect><g stroke-linecap="round" transform="translate(10 71.2857142857141) rotate(0 245.71428571428578 193.57142857142856)"><path d="M32 0 C197.85 1.03, 364.57 -0.18, 459.43 0 M32 0 C201.94 1.65, 372.64 2.06, 459.43 0 M459.43 0 C482.14 -1.51, 491.41 9.93, 491.43 32 M459.43 0 C478.81 2.27, 492.33 10.45, 491.43 32 M491.43 32 C492.55 134.15, 494.66 236.05, 491.43 355.14 M491.43 32 C490.36 99.35, 491.03 166.42, 491.43 355.14 M491.43 355.14 C493.15 377.98, 478.88 388.98, 459.43 387.14 M491.43 355.14 C490.39 377.01, 480.67 388.57, 459.43 387.14 M459.43 387.14 C302.13 387.51, 145.1 387.75, 32 387.14 M459.43 387.14 C341.2 386.19, 223.63 386.92, 32 387.14 M32 387.14 C10.45 386.65, 0.73 376.88, 0 355.14 M32 387.14 C12.26 385.03, -1.32 376.81, 0 355.14 M0 355.14 C-1.33 245.16, -0.68 135.34, 0 32 M0 355.14 C1.74 250.69, 2.02 147.33, 0 32 M0 32 C-1.79 9.13, 11.2 0.32, 32 0 M0 32 C1.13 9.32, 12.38 -2.12, 32 0" stroke="#1e1e1e" stroke-width="2" fill="none"></path></g><g transform="translate(134.3476170131139 247.35714285714266) rotate(0 121.36666870117188 17.5)"><text x="121.36666870117188" y="24.528" font-family="Virgil, Segoe UI Emoji" font-size="28px" fill="#1e1e1e" text-anchor="middle" style="white-space: pre;" direction="ltr" dominant-baseline="alphabetic">sender namespace</text></g><g stroke-linecap="round" transform="translate(704.1428571428564 72.85714285714278) rotate(0 245.71428571428578 193.57142857142856)"><path d="M32 0 C161.18 -1.7, 289.89 -1.53, 459.43 0 M32 0 C164.59 1.03, 297.27 0.39, 459.43 0 M459.43 0 C480.66 0.29, 492.95 9.7, 491.43 32 M459.43 0 C480.28 -0.04, 493.55 8.86, 491.43 32 M491.43 32 C493.06 155.05, 491.53 278.03, 491.43 355.14 M491.43 32 C490.88 119.18, 490.77 205.49, 491.43 355.14 M491.43 355.14 C489.61 376.76, 479.07 386.03, 459.43 387.14 M491.43 355.14 C490.85 377.33, 480.02 388.13, 459.43 387.14 M459.43 387.14 C372.61 387.96, 287.28 389.14, 32 387.14 M459.43 387.14 C291.68 384.94, 123.04 384.77, 32 387.14 M32 387.14 C11.48 386.14, 0.77 377.83, 0 355.14 M32 387.14 C12.62 388.59, -2.23 374.6, 0 355.14 M0 355.14 C-1 260.35, -2.82 167.66, 0 32 M0 355.14 C-0.17 274.69, -0.29 194.26, 0 32 M0 32 C1.93 10.02, 10.82 1.77, 32 0 M0 32 C-0.53 10.94, 8.81 0.11, 32 0" stroke="#1e1e1e" stroke-width="2" fill="none"></path></g><g transform="translate(823.1571459089 248.92857142857133) rotate(0 126.69999694824219 17.5)"><text x="126.69999694824219" y="24.528" font-family="Virgil, Segoe UI Emoji" font-size="28px" fill="#1e1e1e" text-anchor="middle" style="white-space: pre;" direction="ltr" dominant-baseline="alphabetic">firewall namespace</text></g><g stroke-linecap="round" transform="translate(1397.8571428571431 71.28571428571422) rotate(0 245.71428571428567 193.57142857142856)"><path d="M32 0 C174.64 -1.16, 318.54 -0.7, 459.43 0 M32 0 C148.16 1.2, 263.7 0.28, 459.43 0 M459.43 0 C482.04 1.66, 490.12 12, 491.43 32 M459.43 0 C479.51 -1.92, 490.92 10.84, 491.43 32 M491.43 32 C490.59 132.63, 490.4 234.04, 491.43 355.14 M491.43 32 C491.92 107.59, 490.73 183.29, 491.43 355.14 M491.43 355.14 C490.41 378.28, 480.27 387.08, 459.43 387.14 M491.43 355.14 C493.72 377.94, 481.61 386.18, 459.43 387.14 M459.43 387.14 C353.91 390.26, 247.52 388.67, 32 387.14 M459.43 387.14 C351.28 388.8, 243.5 389.44, 32 387.14 M32 387.14 C9.95 385.76, 0.84 374.77, 0 355.14 M32 387.14 C10.37 385.22, -0.06 377.54, 0 355.14 M0 355.14 C-0.3 237.26, 0.95 117.92, 0 32 M0 355.14 C-0.39 265.33, 0.62 175.61, 0 32 M0 32 C0.44 12.15, 9.03 -1.11, 32 0 M0 32 C0.28 8.47, 11.45 1.31, 32 0" stroke="#1e1e1e" stroke-width="2" fill="none"></path></g><g transform="translate(1513.2214224679133 247.35714285714278) rotate(0 130.35000610351574 17.5)"><text x="130.35000610351562" y="24.528" font-family="Virgil, Segoe UI Emoji" font-size="28px" fill="#1e1e1e" text-anchor="middle" style="white-space: pre;" direction="ltr" dominant-baseline="alphabetic">receiver namespace</text></g><g stroke-linecap="round" transform="translate(501.85714285714266 73) rotate(0 62.142857142857224 37.85714285714283)"><path d="M18.93 0 C42.57 -0.17, 65.89 0.44, 105.36 0 M18.93 0 C45.11 -1.64, 72.72 0.11, 105.36 0 M105.36 0 C117.69 -1.75, 123.01 6.34, 124.29 18.93 M105.36 0 C118.89 -0.93, 126.23 5.82, 124.29 18.93 M124.29 18.93 C123.32 26.51, 122.85 34.81, 124.29 56.79 M124.29 18.93 C123.61 27.11, 124.61 34.78, 124.29 56.79 M124.29 56.79 C122.57 68.57, 118.67 75.6, 105.36 75.71 M124.29 56.79 C122.02 67.84, 117.69 75.86, 105.36 75.71 M105.36 75.71 C81.46 74.27, 59.02 74.24, 18.93 75.71 M105.36 75.71 C88.2 76.18, 70.79 75.63, 18.93 75.71 M18.93 75.71 C5.47 77.66, 1.8 69.69, 0 56.79 M18.93 75.71 C4.56 77.54, 1.48 67.58, 0 56.79 M0 56.79 C-1.51 44.97, 1.46 29.84, 0 18.93 M0 56.79 C0.44 43.13, 0.32 28.77, 0 18.93 M0 18.93 C1.59 4.83, 6.01 1.24, 18.93 0 M0 18.93 C1.35 7.64, 8.33 1.91, 18.93 0" stroke="#1e1e1e" stroke-width="2" fill="none"></path></g><g transform="translate(524.5583343505858 93.35714285714283) rotate(0 39.44166564941406 17.5)"><text x="39.44166564941406" y="24.528" font-family="Virgil, Segoe UI Emoji" font-size="28px" fill="#1e1e1e" text-anchor="middle" style="white-space: pre;" direction="ltr" dominant-baseline="alphabetic">veth0</text></g><g stroke-linecap="round" transform="translate(577.2857142857142 383.42857142857144) rotate(0 62.142857142857224 37.85714285714283)"><path d="M18.93 0 C48.19 0.02, 79.1 -0.6, 105.36 0 M18.93 0 C40.36 1.02, 60.87 0.59, 105.36 0 M105.36 0 C118.19 -0.57, 124.01 4.34, 124.29 18.93 M105.36 0 C120.02 2.21, 125.4 7.57, 124.29 18.93 M124.29 18.93 C124.38 26.78, 126.13 36.65, 124.29 56.79 M124.29 18.93 C123.56 31.26, 124.98 44.69, 124.29 56.79 M124.29 56.79 C126.21 70.26, 118.41 74.26, 105.36 75.71 M124.29 56.79 C124.72 70.36, 119.39 73.81, 105.36 75.71 M105.36 75.71 C70.56 74.38, 38.06 76.96, 18.93 75.71 M105.36 75.71 C76.35 75.62, 45.85 74.61, 18.93 75.71 M18.93 75.71 C8.17 75.41, -1.22 69.2, 0 56.79 M18.93 75.71 C6.7 75.7, 2.1 70.08, 0 56.79 M0 56.79 C0.75 48, 1.14 36.19, 0 18.93 M0 56.79 C-0.71 43.26, -0.75 29.36, 0 18.93 M0 18.93 C0.18 7.67, 5.35 0.57, 18.93 0 M0 18.93 C-1.13 4.71, 4.28 -1.79, 18.93 0" stroke="#1e1e1e" stroke-width="2" fill="none"></path></g><g transform="translate(605.8285729544504 403.78571428571433) rotate(0 33.599998474121094 17.5)"><text x="33.599998474121094" y="24.528" font-family="Virgil, Segoe UI Emoji" font-size="28px" fill="#1e1e1e" text-anchor="middle" style="white-space: pre;" direction="ltr" dominant-baseline="alphabetic">veth1</text></g><g stroke-linecap="round" transform="translate(1196.714285714285 71.07142857142856) rotate(0 62.142857142857224 37.85714285714283)"><path d="M18.93 0 C47.11 0.95, 80.06 1.63, 105.36 0 M18.93 0 C51 1.25, 84.23 0.93, 105.36 0 M105.36 0 C116.26 -0.73, 125.08 6.36, 124.29 18.93 M105.36 0 C119.59 -0.48, 122.02 8.15, 124.29 18.93 M124.29 18.93 C124.01 32.81, 124.18 49.23, 124.29 56.79 M124.29 18.93 C124.75 31.56, 123.5 43.57, 124.29 56.79 M124.29 56.79 C122.38 69.77, 116.49 76.09, 105.36 75.71 M124.29 56.79 C124.63 67.59, 116.84 74.65, 105.36 75.71 M105.36 75.71 C86.41 76.91, 70.55 73.36, 18.93 75.71 M105.36 75.71 C71.23 76.67, 37.07 75.53, 18.93 75.71 M18.93 75.71 C7.87 74.63, 1.85 71.11, 0 56.79 M18.93 75.71 C8.6 73.53, 0.22 69.99, 0 56.79 M0 56.79 C-1.61 42.23, -2.29 26.79, 0 18.93 M0 56.79 C0.65 45.64, -0.25 32.99, 0 18.93 M0 18.93 C0.28 6.79, 7.13 1.7, 18.93 0 M0 18.93 C2.18 7.88, 7.92 -1.43, 18.93 0" stroke="#1e1e1e" stroke-width="2" fill="none"></path></g><g transform="translate(1219.0821413312635 91.42857142857139) rotate(0 39.775001525878906 17.5)"><text x="39.775001525878906" y="24.528" font-family="Virgil, Segoe UI Emoji" font-size="28px" fill="#1e1e1e" text-anchor="middle" style="white-space: pre;" direction="ltr" dominant-baseline="alphabetic">veth2</text></g><g stroke-linecap="round" transform="translate(1272.1428571428567 381.5000000000001) rotate(0 62.142857142857224 37.85714285714283)"><path d="M18.93 0 C48.16 1.39, 73.33 -1.66, 105.36 0 M18.93 0 C51.25 -0.81, 85.69 -0.42, 105.36 0 M105.36 0 C119.38 -0.41, 122.32 7.91, 124.29 18.93 M105.36 0 C119.76 0.41, 125.2 5.92, 124.29 18.93 M124.29 18.93 C124.98 29.46, 125 41.07, 124.29 56.79 M124.29 18.93 C123.04 30.09, 123.25 41.07, 124.29 56.79 M124.29 56.79 C124.59 67.82, 116.99 74.79, 105.36 75.71 M124.29 56.79 C122.21 67.62, 116.07 74.78, 105.36 75.71 M105.36 75.71 C73.1 76.1, 37.86 75.48, 18.93 75.71 M105.36 75.71 C75.39 74.67, 44.8 76.06, 18.93 75.71 M18.93 75.71 C8.3 73.81, 0.19 69.92, 0 56.79 M18.93 75.71 C8.21 77.9, -0.54 67.97, 0 56.79 M0 56.79 C0.78 45.27, -0.78 35.5, 0 18.93 M0 56.79 C0.26 41.9, 0.52 27.37, 0 18.93 M0 18.93 C1.9 7.68, 7.71 -1.25, 18.93 0 M0 18.93 C-0.96 4.76, 4.02 -1.86, 18.93 0" stroke="#1e1e1e" stroke-width="2" fill="none"></path></g><g transform="translate(1294.944047110421 401.857142857143) rotate(0 39.34166717529297 17.5)"><text x="39.34166717529297" y="24.528" font-family="Virgil, Segoe UI Emoji" font-size="28px" fill="#1e1e1e" text-anchor="middle" style="white-space: pre;" direction="ltr" dominant-baseline="alphabetic">veth3</text></g><g mask="url(#mask-Vkn9U9OohhxIlViRMAyBs)" stroke-linecap="round"><g transform="translate(562.8571428571427 157) rotate(0 37.85714285714289 108.57142857142856)"><path d="M-0.17 0.74 C12.22 36.81, 62.74 181.18, 75.57 217.17 M-1.72 0.08 C10.4 36.29, 61.5 182.44, 74.54 218.72" stroke="#1e1e1e" stroke-width="2" fill="none"></path></g><g transform="translate(562.8571428571427 157) rotate(0 37.85714285714289 108.57142857142856)"><path d="M58.65 199.42 C66.35 206.9, 71.5 216.6, 74.54 218.72 M58.65 199.42 C63.07 204.59, 67.19 209.42, 74.54 218.72" stroke="#1e1e1e" stroke-width="2" fill="none"></path></g><g transform="translate(562.8571428571427 157) rotate(0 37.85714285714289 108.57142857142856)"><path d="M74.77 193.72 C76.08 203.45, 74.79 215.42, 74.54 218.72 M74.77 193.72 C74.99 200.29, 74.93 206.6, 74.54 218.72" stroke="#1e1e1e" stroke-width="2" fill="none"></path></g></g><mask id="mask-Vkn9U9OohhxIlViRMAyBs"><rect x="0" y="0" fill="#fff" width="738.5714285714284" height="474.1428571428571"></rect><rect x="546.4559506007602" y="230.57142857142856" fill="#000" width="108.51667022705078" height="70" opacity="1"></rect></mask><g transform="translate(546.4559506007602 230.57142857142856) rotate(0 53.323446337026496 35.82857852718794)"><text x="54.25833511352539" y="24.528" font-family="Virgil, Segoe UI Emoji" font-size="28px" fill="#1e1e1e" text-anchor="middle" style="white-space: pre;" direction="ltr" dominant-baseline="alphabetic">Default</text><text x="54.25833511352539" y="59.528" font-family="Virgil, Segoe UI Emoji" font-size="28px" fill="#1e1e1e" text-anchor="middle" style="white-space: pre;" direction="ltr" dominant-baseline="alphabetic">Route</text></g><g mask="url(#mask-jMfSILM9cIQugFFVXRYFq)" stroke-linecap="round"><g transform="translate(1258.5714285714284 154.1428571428571) rotate(0 37.85714285714289 110.71428571428572)"><path d="M0.56 -0.77 C13.19 36.21, 64.49 185.25, 76.83 222.24 M-0.61 1.43 C11.87 38.05, 63.55 183.73, 76.46 220.55" stroke="#1e1e1e" stroke-width="2" fill="none"></path></g><g transform="translate(1258.5714285714284 154.1428571428571) rotate(0 37.85714285714289 110.71428571428572)"><path d="M60.58 201.24 C65.51 210.5, 74.31 214.25, 76.46 220.55 M60.58 201.24 C64.26 206.82, 69.95 211.95, 76.46 220.55" stroke="#1e1e1e" stroke-width="2" fill="none"></path></g><g transform="translate(1258.5714285714284 154.1428571428571) rotate(0 37.85714285714289 110.71428571428572)"><path d="M76.71 195.55 C75.4 207.1, 77.95 213.04, 76.46 220.55 M76.71 195.55 C75.85 202.79, 77.04 209.51, 76.46 220.55" stroke="#1e1e1e" stroke-width="2" fill="none"></path></g></g><mask id="mask-jMfSILM9cIQugFFVXRYFq"><rect x="0" y="0" fill="#fff" width="1434.2857142857142" height="475.57142857142856"></rect><rect x="1242.170236315046" y="229.85714285714278" fill="#000" width="108.51667022705078" height="70" opacity="1"></rect></mask><g transform="translate(1242.1702363150462 229.85714285714283) rotate(0 54.51093616504693 35.02118017077444)"><text x="54.25833511352539" y="24.528" font-family="Virgil, Segoe UI Emoji" font-size="28px" fill="#1e1e1e" text-anchor="middle" style="white-space: pre;" direction="ltr" dominant-baseline="alphabetic">Default</text><text x="54.25833511352539" y="59.528" font-family="Virgil, Segoe UI Emoji" font-size="28px" fill="#1e1e1e" text-anchor="middle" style="white-space: pre;" direction="ltr" dominant-baseline="alphabetic">Route</text></g><g stroke-linecap="round" transform="translate(761.2857142857142 10.857142857142776) rotate(0 189.9999999999999 30)"><path d="M15 0 C135.07 -0.39, 252.19 -0.37, 365 0 M15 0 C127.42 -2.48, 238.79 -1.96, 365 0 M365 0 C376.7 1.43, 380.95 3.47, 380 15 M365 0 C375.28 1.77, 381.96 6.3, 380 15 M380 15 C379.01 27, 379.87 37.73, 380 45 M380 15 C379.43 24.98, 380.54 35.37, 380 45 M380 45 C381.35 55.64, 375.76 60.36, 365 60 M380 45 C381.87 53.73, 373.75 59.32, 365 60 M365 60 C276.45 60.19, 187.4 60.24, 15 60 M365 60 C272.99 62.42, 181.6 61.81, 15 60 M15 60 C6.6 59.14, 0.1 56.34, 0 45 M15 60 C7.01 59.27, 1.56 52.74, 0 45 M0 45 C1.68 40.43, -0.15 33.07, 0 15 M0 45 C0.75 36.61, -0.17 29.29, 0 15 M0 15 C1.14 4.81, 6.75 1.7, 15 0 M0 15 C0.56 4.6, 3.84 1.31, 15 0" stroke="#1e1e1e" stroke-width="2" fill="none"></path></g><g transform="translate(858.1107112339562 23.357142857142776) rotate(0 93.17500305175781 17.5)"><text x="93.17500305175781" y="24.528" font-family="Virgil, Segoe UI Emoji" font-size="28px" fill="#1e1e1e" text-anchor="middle" style="white-space: pre;" direction="ltr" dominant-baseline="alphabetic">iptables rules</text></g><g stroke-linecap="round" transform="translate(62.857142857143 11) rotate(0 189.9999999999999 30)"><path d="M15 0 C111.83 -2.45, 208.23 -0.7, 365 0 M15 0 C129.34 -1.64, 244.49 -1.67, 365 0 M365 0 C376.88 -1.94, 379.64 4.06, 380 15 M365 0 C374.87 0.16, 378.13 5.77, 380 15 M380 15 C380.58 25.53, 382.16 35.07, 380 45 M380 15 C380.42 27.41, 379.69 38.29, 380 45 M380 45 C380.61 54.65, 373.87 58.53, 365 60 M380 45 C377.88 57.29, 373.72 59.15, 365 60 M365 60 C287.56 59, 209.21 59.59, 15 60 M365 60 C282.99 60.89, 201.4 61.9, 15 60 M15 60 C3.9 59.88, 0.72 55.6, 0 45 M15 60 C3.06 61.93, 2.04 56.38, 0 45 M0 45 C0.41 35.75, -1.97 22.96, 0 15 M0 45 C-0.62 36.68, 0.16 26.65, 0 15 M0 15 C-0.61 6.77, 6.22 1.38, 15 0 M0 15 C0.94 6.63, 3.73 -0.22, 15 0" stroke="#1e1e1e" stroke-width="2" fill="none"></path></g><g transform="translate(134.29047720772883 23.5) rotate(0 118.56666564941406 17.5)"><text x="118.56666564941406" y="24.528" font-family="Virgil, Segoe UI Emoji" font-size="28px" fill="#1e1e1e" text-anchor="middle" style="white-space: pre;" direction="ltr" dominant-baseline="alphabetic">packet generator</text></g><g stroke-linecap="round" transform="translate(1452.714285714286 10) rotate(0 190 30)"><path d="M15 0 C155.62 -0.41, 294.85 -0.16, 365 0 M15 0 C94.11 1.99, 172.5 1.73, 365 0 M365 0 C376.65 -1.08, 378.95 4.55, 380 15 M365 0 C374.89 -1.19, 380.85 4.54, 380 15 M380 15 C379.88 24.21, 378.98 35.1, 380 45 M380 15 C379.58 24.99, 380.34 34.08, 380 45 M380 45 C379.12 55.02, 375.6 58.14, 365 60 M380 45 C380.5 57.18, 373.28 60.64, 365 60 M365 60 C247.47 59.91, 131.86 60, 15 60 M365 60 C293.35 60.72, 220.62 61.05, 15 60 M15 60 C5.26 61.41, -0.31 56.76, 0 45 M15 60 C6.61 61.01, 2.2 57.16, 0 45 M0 45 C1.83 36.05, -0.58 32.39, 0 15 M0 45 C0.74 37.55, -0.04 30.87, 0 15 M0 15 C0.6 4.72, 5.17 1.14, 15 0 M0 15 C-2.13 6.99, 5.83 1.68, 15 0" stroke="#1e1e1e" stroke-width="2" fill="none"></path></g><g transform="translate(1544.714285714286 22.5) rotate(0 98 17.5)"><text x="98" y="24.528" font-family="Virgil, Segoe UI Emoji" font-size="28px" fill="#1e1e1e" text-anchor="middle" style="white-space: pre;" direction="ltr" dominant-baseline="alphabetic">packet dumper</text></g></svg>