<svg version="1.1" xmlns="http://www.w3.org/2000/svg" viewBox="0 0 721.0362694300516 1231.5" width="721.0362694300516" height="1231.5">
  <!-- svg-source:excalidraw -->
  
  <defs>
    <style class="style-fonts">
      @font-face {
        font-family: "Virgil";
        src: url("https://excalidraw.com/Virgil.woff2");
      }
      @font-face {
        font-family: "Cascadia";
        src: url("https://excalidraw.com/Cascadia.woff2");
      }
      @font-face {
        font-family: "Assistant";
        src: url("https://excalidraw.com/Assistant-Regular.woff2");
      }
    </style>
    
  </defs>
  <rect x="0" y="0" width="721.0362694300516" height="1231.5" fill="#ffffff"></rect><g stroke-linecap="round" transform="translate(151 524) rotate(0 195.5 164)"><path d="M32 0 C118.77 -1.81, 209.04 -2.39, 359 0 M32 0 C97.66 0.25, 163.42 1.04, 359 0 M359 0 C380.99 -0.81, 390.21 12.67, 391 32 M359 0 C382.62 -2.24, 392.62 11.89, 391 32 M391 32 C390.79 137.41, 391.1 239.08, 391 296 M391 32 C391.88 101.04, 393.33 171.11, 391 296 M391 296 C391.63 316.29, 378.84 329.79, 359 328 M391 296 C391.81 319.41, 378.4 328.64, 359 328 M359 328 C236.55 328.78, 115.78 329.19, 32 328 M359 328 C269.85 325.89, 180.17 327.2, 32 328 M32 328 C9.85 327.99, -1.37 315.94, 0 296 M32 328 C11.49 327.59, 0.23 316.74, 0 296 M0 296 C-0.22 191.61, 0.5 91.1, 0 32 M0 296 C-1.24 225.63, -0.59 156.37, 0 32 M0 32 C0.02 11.92, 9.35 -1.47, 32 0 M0 32 C-0.54 12.65, 12.92 1.24, 32 0" stroke="#1e1e1e" stroke-width="2" fill="none"></path></g><g transform="translate(272.1166687011719 675.5) rotate(0 74.38333129882812 12.5)"><text x="74.38333129882812" y="17.52" font-family="Virgil, Segoe UI Emoji" font-size="20px" fill="#1e1e1e" text-anchor="middle" style="white-space: pre;" direction="ltr" dominant-baseline="alphabetic">Firewall System</text></g><g stroke-linecap="round" transform="translate(195 460) rotate(0 67.5 31)"><path d="M15.5 0 C47.36 1.93, 78.06 0.92, 119.5 0 M15.5 0 C39.5 -0.68, 62.63 -0.94, 119.5 0 M119.5 0 C128.07 -1.75, 136.88 4.82, 135 15.5 M119.5 0 C127.73 -1, 135.21 4.84, 135 15.5 M135 15.5 C133.38 23.89, 134.15 37.3, 135 46.5 M135 15.5 C134.97 25.89, 134.4 36.45, 135 46.5 M135 46.5 C133.81 58.48, 131.27 60.45, 119.5 62 M135 46.5 C137.05 57.94, 130.7 64.15, 119.5 62 M119.5 62 C87.75 62.62, 58.44 60.95, 15.5 62 M119.5 62 C91.96 61.26, 66.13 61.43, 15.5 62 M15.5 62 C4.3 63.69, 0.9 56.82, 0 46.5 M15.5 62 C3.69 60.66, 0.42 58.67, 0 46.5 M0 46.5 C0.28 37.41, 1.52 31.68, 0 15.5 M0 46.5 C0.02 37.75, 0.25 28.77, 0 15.5 M0 15.5 C-1.7 4.54, 3.6 -0.36, 15.5 0 M0 15.5 C-0.85 6.95, 3.31 0.11, 15.5 0" stroke="#1e1e1e" stroke-width="2" fill="none"></path></g><g transform="translate(239.5583324432373 478.5) rotate(0 22.941667556762695 12.5)"><text x="22.941667556762695" y="17.52" font-family="Virgil, Segoe UI Emoji" font-size="20px" fill="#1e1e1e" text-anchor="middle" style="white-space: pre;" direction="ltr" dominant-baseline="alphabetic">eth0</text></g><g stroke-linecap="round" transform="translate(367.5 460) rotate(0 67.5 31)"><path d="M15.5 0 C39.61 1.14, 67.7 0.03, 119.5 0 M15.5 0 C54.67 1.35, 93.96 0.07, 119.5 0 M119.5 0 C130.97 -1.9, 136.91 6.98, 135 15.5 M119.5 0 C130.05 -0.11, 134.38 4.6, 135 15.5 M135 15.5 C133.84 25.5, 133.4 39.18, 135 46.5 M135 15.5 C135.21 27.89, 134.39 37.88, 135 46.5 M135 46.5 C135.57 58.18, 130.99 60.02, 119.5 62 M135 46.5 C134.76 57.69, 130.74 63.49, 119.5 62 M119.5 62 C89.08 62.17, 57.23 63.54, 15.5 62 M119.5 62 C87.4 61.29, 53.08 62.6, 15.5 62 M15.5 62 C5.82 61.14, -1.64 57.03, 0 46.5 M15.5 62 C3.93 61.08, -1.7 58.64, 0 46.5 M0 46.5 C-1.09 33.5, 0.72 22.39, 0 15.5 M0 46.5 C-1.05 35.57, -0.94 22.83, 0 15.5 M0 15.5 C-1.79 3.4, 3.59 0.53, 15.5 0 M0 15.5 C-0.46 5.01, 6.03 0.38, 15.5 0" stroke="#1e1e1e" stroke-width="2" fill="none"></path></g><g transform="translate(416.2333335876465 478.5) rotate(0 18.766666412353516 12.5)"><text x="18.766666412353516" y="17.52" font-family="Virgil, Segoe UI Emoji" font-size="20px" fill="#1e1e1e" text-anchor="middle" style="white-space: pre;" direction="ltr" dominant-baseline="alphabetic">eth1</text></g><g transform="translate(132 424) rotate(0 55.36666488647461 12.5)"><text x="0" y="17.52" font-family="Virgil, Segoe UI Emoji" font-size="20px" fill="#1e1e1e" text-anchor="start" style="white-space: pre;" direction="ltr" dominant-baseline="alphabetic">192.0.2.1/31</text></g><g transform="translate(445.6333351135254 424.5) rotate(0 59.46666717529297 12.5)"><text x="0" y="17.52" font-family="Virgil, Segoe UI Emoji" font-size="20px" fill="#1e1e1e" text-anchor="start" style="white-space: pre;" direction="ltr" dominant-baseline="alphabetic">192.0.2.3/31</text></g><g stroke-linecap="round" transform="translate(157.5 854) rotate(0 59.5 30)"><path d="M15 0 C33.42 -2.42, 51.71 -1.77, 104 0 M15 0 C48.51 -0.37, 82.73 -0.63, 104 0 M104 0 C115 -1.15, 120.79 6.86, 119 15 M104 0 C115.35 1.29, 121.26 7.21, 119 15 M119 15 C117.85 21.89, 117.63 27.05, 119 45 M119 15 C120.07 24.84, 118.31 36.71, 119 45 M119 45 C120.89 54.02, 113.31 61.16, 104 60 M119 45 C118.58 54.92, 115.77 58.02, 104 60 M104 60 C74.6 60.7, 50.28 59.25, 15 60 M104 60 C86.04 59.18, 66.95 59.69, 15 60 M15 60 C4.4 58.08, 1.35 56.68, 0 45 M15 60 C4.78 61.76, 0.33 54.08, 0 45 M0 45 C-1.6 35.21, 1.84 22.79, 0 15 M0 45 C0.49 34.98, 0.31 23.65, 0 15 M0 15 C1.89 4.77, 4.37 1.58, 15 0 M0 15 C1.41 6.67, 3.65 0.73, 15 0" stroke="#1e1e1e" stroke-width="2" fill="none"></path></g><g transform="translate(169.91666793823242 871.5) rotate(0 47.08333206176758 12.5)"><text x="47.08333206176758" y="17.52" font-family="Virgil, Segoe UI Emoji" font-size="20px" fill="#1e1e1e" text-anchor="middle" style="white-space: pre;" direction="ltr" dominant-baseline="alphabetic">bond0.100</text></g><g stroke-linecap="round" transform="translate(285.5 854) rotate(0 59.5 30)"><path d="M15 0 C38.65 0.42, 65.29 0.65, 104 0 M15 0 C42.03 0.18, 69.05 -0.87, 104 0 M104 0 C114.17 -0.98, 118.41 4.81, 119 15 M104 0 C112.22 0.06, 120.03 5.92, 119 15 M119 15 C120.59 25.03, 117.43 38.33, 119 45 M119 15 C119.39 22.69, 118.52 30.78, 119 45 M119 45 C118.82 54.72, 112.45 61.73, 104 60 M119 45 C119.82 53.74, 116.13 59.03, 104 60 M104 60 C80.45 58.85, 56.92 58.38, 15 60 M104 60 C72.29 61.77, 39.81 60.41, 15 60 M15 60 C5.37 61.8, 0.55 54.38, 0 45 M15 60 C6.6 57.87, -1.36 54.81, 0 45 M0 45 C-1.55 31.61, -0.4 21.25, 0 15 M0 45 C-0.71 39.58, 0.4 32.18, 0 15 M0 15 C1.49 4.74, 6.76 1.36, 15 0 M0 15 C-0.04 6.67, 6.92 -1.61, 15 0" stroke="#1e1e1e" stroke-width="2" fill="none"></path></g><g transform="translate(302.09166717529297 871.5) rotate(0 42.90833282470703 12.5)"><text x="42.90833282470703" y="17.52" font-family="Virgil, Segoe UI Emoji" font-size="20px" fill="#1e1e1e" text-anchor="middle" style="white-space: pre;" direction="ltr" dominant-baseline="alphabetic">bond0.101</text></g><g stroke-linecap="round" transform="translate(412.5 853) rotate(0 59.5 30)"><path d="M15 0 C42.45 1.37, 67.49 -0.95, 104 0 M15 0 C47.04 0.04, 79.42 -1.1, 104 0 M104 0 C114.18 1.91, 117.92 4.25, 119 15 M104 0 C112.58 -0.67, 121.15 6.58, 119 15 M119 15 C117.25 24.86, 117.09 30.82, 119 45 M119 15 C118.77 23.71, 118.96 30.37, 119 45 M119 45 C118.74 54.63, 113.04 59.2, 104 60 M119 45 C116.93 53.33, 115.39 60.33, 104 60 M104 60 C83.94 60.4, 64.95 58.26, 15 60 M104 60 C69.96 58.52, 35.92 60.23, 15 60 M15 60 C4.16 59.35, -0.28 54.68, 0 45 M15 60 C2.91 62.24, -0.72 56.66, 0 45 M0 45 C-0.7 35.08, 0.83 26.6, 0 15 M0 45 C0.78 35.7, -0.18 26.11, 0 15 M0 15 C1.72 5.87, 6.35 0.9, 15 0 M0 15 C1.38 6.43, 7.23 -1.32, 15 0" stroke="#1e1e1e" stroke-width="2" fill="none"></path></g><g transform="translate(424.68333435058594 870.5) rotate(0 47.31666564941406 12.5)"><text x="47.31666564941406" y="17.52" font-family="Virgil, Segoe UI Emoji" font-size="20px" fill="#1e1e1e" text-anchor="middle" style="white-space: pre;" direction="ltr" dominant-baseline="alphabetic">bond0.102</text></g><g transform="translate(32 926) rotate(0 71.26667022705078 12.5)"><text x="0" y="17.52" font-family="Virgil, Segoe UI Emoji" font-size="20px" fill="#1e1e1e" text-anchor="start" style="white-space: pre;" direction="ltr" dominant-baseline="alphabetic">198.51.100.1/26</text></g><g transform="translate(265.7333297729492 926.5) rotate(0 81.14167022705078 12.5)"><text x="0" y="17.52" font-family="Virgil, Segoe UI Emoji" font-size="20px" fill="#1e1e1e" text-anchor="start" style="white-space: pre;" direction="ltr" dominant-baseline="alphabetic">198.51.100.65/26</text></g><g transform="translate(521.8583297729492 922.5) rotate(0 84.4749984741211 12.5)"><text x="0" y="17.52" font-family="Virgil, Segoe UI Emoji" font-size="20px" fill="#1e1e1e" text-anchor="start" style="white-space: pre;" direction="ltr" dominant-baseline="alphabetic">198.51.100.129/26</text></g><g stroke-linecap="round" transform="translate(10 1020) rotate(0 104 96.5)"><path d="M147.72 9.34 C159.91 12.99, 171.82 22.23, 180.97 31.28 C190.13 40.34, 198.29 52.07, 202.65 63.67 C207 75.26, 207.97 88.51, 207.12 100.83 C206.26 113.16, 202.97 126.48, 197.51 137.63 C192.05 148.78, 183.96 159.34, 174.34 167.76 C164.71 176.18, 152.23 183.91, 139.78 188.14 C127.33 192.36, 112.77 193.73, 99.64 193.09 C86.52 192.46, 72.98 189.42, 61.03 184.32 C49.08 179.23, 36.97 171.8, 27.93 162.53 C18.89 153.26, 11.39 140.27, 6.78 128.7 C2.17 117.13, -0.15 105.21, 0.26 93.1 C0.67 80.99, 3.75 67.47, 9.23 56.03 C14.71 44.59, 23.23 32.68, 33.15 24.46 C43.08 16.23, 56.1 10.56, 68.78 6.66 C81.46 2.76, 95.1 0.14, 109.23 1.05 C123.35 1.97, 145.2 9.52, 153.53 12.15 C161.86 14.79, 159.87 15.49, 159.19 16.85 M69.1 5.61 C80.59 0.26, 96.35 0.84, 109.69 1.36 C123.04 1.89, 137.31 3.89, 149.19 8.74 C161.06 13.59, 172.26 20.97, 180.93 30.45 C189.59 39.94, 196.48 53.7, 201.19 65.67 C205.9 77.65, 209.76 90, 209.2 102.3 C208.65 114.6, 203.71 128.49, 197.85 139.47 C192 150.45, 183.74 160.11, 174.08 168.16 C164.43 176.21, 152.74 183.7, 139.92 187.78 C127.09 191.86, 110.84 193.58, 97.14 192.64 C83.44 191.69, 69.38 187.3, 57.73 182.12 C46.07 176.95, 35.83 170.62, 27.19 161.58 C18.55 152.54, 10.5 139.71, 5.89 127.87 C1.29 116.03, -0.97 102.87, -0.44 90.54 C0.09 78.21, 3.07 64.68, 9.05 53.89 C15.03 43.11, 25.19 33.85, 35.44 25.83 C45.69 17.8, 64.91 8.91, 70.55 5.75 C76.19 2.59, 68.72 5.57, 69.28 6.87" stroke="#1e1e1e" stroke-width="2" fill="none"></path></g><g transform="translate(53.63589399365958 1106.264195615498) rotate(0 60.32500076293945 10)"><text x="60.32500076293945" y="14.016" font-family="Virgil, Segoe UI Emoji" font-size="16px" fill="#1e1e1e" text-anchor="middle" style="white-space: pre;" direction="ltr" dominant-baseline="alphabetic">198.51.100.0/26</text></g><g stroke-linecap="round" transform="translate(242 1028.5) rotate(0 104 96.5)"><path d="M147.95 7.88 C159.87 11.4, 170.98 20.87, 179.82 29.97 C188.65 39.08, 196.34 50.93, 200.97 62.52 C205.6 74.12, 207.86 87.09, 207.6 99.53 C207.34 111.97, 204.8 125.9, 199.42 137.19 C194.04 148.48, 185.11 159.06, 175.31 167.27 C165.51 175.48, 153.16 182.08, 140.63 186.46 C128.1 190.84, 113.46 193.89, 100.13 193.56 C86.8 193.23, 72.72 189.59, 60.65 184.46 C48.59 179.33, 36.82 171.82, 27.74 162.76 C18.67 153.71, 10.68 141.88, 6.19 130.1 C1.7 118.32, 0.27 104.42, 0.8 92.1 C1.33 79.77, 3.82 67.32, 9.36 56.15 C14.9 44.98, 24.42 33.3, 34.04 25.05 C43.65 16.81, 54.6 10.89, 67.05 6.66 C79.51 2.43, 93.83 -1.53, 108.78 -0.34 C123.72 0.86, 147.64 10.43, 156.72 13.83 C165.79 17.23, 164.34 18.67, 163.22 20.07 M82.4 3.55 C94.01 -0.69, 107.44 -1.38, 120.41 0.4 C133.39 2.19, 148.73 7.4, 160.24 14.26 C171.75 21.12, 182.09 31.44, 189.45 41.57 C196.81 51.7, 201.7 63.22, 204.4 75.04 C207.09 86.86, 207.52 100.35, 205.62 112.5 C203.71 124.64, 200 137.57, 192.97 147.91 C185.94 158.25, 174.52 167.36, 163.44 174.54 C152.36 181.72, 139.36 188.06, 126.5 190.98 C113.63 193.89, 99.45 194.31, 86.25 192.05 C73.05 189.79, 58.75 184.28, 47.3 177.41 C35.85 170.54, 25.09 160.55, 17.57 150.83 C10.05 141.1, 5.02 131.11, 2.17 119.08 C-0.68 107.06, -1.74 91.15, 0.47 78.67 C2.69 66.19, 7.96 54.51, 15.47 44.2 C22.97 33.9, 34.35 23.59, 45.5 16.84 C56.65 10.08, 76.35 5.77, 82.36 3.66 C88.36 1.54, 81.55 2.64, 81.55 4.17" stroke="#1e1e1e" stroke-width="2" fill="none"></path></g><g transform="translate(280.9025604060131 1114.764195615498) rotate(0 65.05833435058594 10)"><text x="65.05833435058594" y="14.016" font-family="Virgil, Segoe UI Emoji" font-size="16px" fill="#1e1e1e" text-anchor="middle" style="white-space: pre;" direction="ltr" dominant-baseline="alphabetic">198.51.100.64/26</text></g><g stroke-linecap="round" transform="translate(500 1019.5) rotate(0 105.51813471502578 97.90865384615381)"><path d="M70.33 5.62 C80.93 0.32, 94.93 -1.11, 107.38 -0.79 C119.83 -0.47, 133.04 2.95, 145.03 7.54 C157.02 12.13, 170.07 18.74, 179.32 26.76 C188.57 34.77, 195.38 44.85, 200.53 55.62 C205.68 66.39, 209.28 79.36, 210.23 91.38 C211.18 103.4, 209.72 116.46, 206.23 127.76 C202.73 139.05, 197.06 149.98, 189.24 159.15 C181.42 168.31, 170.51 176.82, 159.3 182.72 C148.08 188.62, 134.46 192.75, 121.93 194.53 C109.4 196.32, 96.42 195.72, 84.13 193.44 C71.84 191.15, 58.96 187.05, 48.18 180.82 C37.4 174.59, 26.77 165.9, 19.45 156.07 C12.12 146.25, 7.52 133.35, 4.24 121.86 C0.96 110.38, -1.59 98.77, -0.22 87.15 C1.14 75.53, 6.37 62.48, 12.42 52.13 C18.47 41.77, 25.86 33.12, 36.08 25.03 C46.3 16.93, 66.35 7.02, 73.73 3.55 C81.11 0.08, 79.63 2.43, 80.36 4.19 M89.87 0.29 C101.39 -2.89, 115.3 0.68, 127.43 3.21 C139.55 5.74, 152.15 9.31, 162.61 15.47 C173.07 21.64, 182.51 30.48, 190.17 40.19 C197.83 49.89, 205.15 62.1, 208.58 73.7 C212.01 85.3, 212.41 98.07, 210.75 109.8 C209.1 121.53, 204.85 133.66, 198.64 144.07 C192.43 154.48, 183.11 164.82, 173.49 172.26 C163.87 179.7, 152.55 184.65, 140.9 188.7 C129.26 192.75, 116.08 196.69, 103.63 196.56 C91.19 196.42, 77.9 192.56, 66.23 187.89 C54.56 183.21, 43.04 176.39, 33.59 168.52 C24.14 160.64, 14.89 151.53, 9.52 140.65 C4.15 129.77, 2.31 115.48, 1.38 103.25 C0.45 91.02, 0.43 78.18, 3.94 67.25 C7.46 56.33, 14.62 46.61, 22.45 37.71 C30.29 28.8, 39.72 19.91, 50.97 13.83 C62.22 7.75, 83.51 2.84, 89.95 1.22 C96.39 -0.4, 89.57 2.67, 89.59 4.12" stroke="#1e1e1e" stroke-width="2" fill="none"></path></g><g transform="translate(536.5972117692895 1107.1767807746921) rotate(0 68.80833435058594 10)"><text x="68.80833435058594" y="14.016000000000009" font-family="Virgil, Segoe UI Emoji" font-size="16.00000000000001px" fill="#1e1e1e" text-anchor="middle" style="white-space: pre;" direction="ltr" dominant-baseline="alphabetic">198.51.100.128/26</text></g><g stroke-linecap="round"><g transform="translate(219.29717236891634 919) rotate(0 -31.96918860090409 49.383274386460414)"><path d="M-1.03 -0.88 C-11.77 15.51, -52.84 82.65, -63.49 99.33 M0.62 1.27 C-10.3 17.82, -53.66 81.54, -64.21 97.5" stroke="#1e1e1e" stroke-width="2" fill="none"></path></g></g><mask></mask><g stroke-linecap="round"><g transform="translate(345.24724052510237 915) rotate(0 -0.5364920832983557 51.95546490489369)"><path d="M-0.03 0.65 C-0.38 17.9, -1.76 87.14, -2.08 104.19 M-1.51 -0.06 C-1.49 16.76, -0.23 84.91, 0.11 102.22" stroke="#1e1e1e" stroke-width="2" fill="none"></path></g></g><mask></mask><g stroke-linecap="round"><g transform="translate(472.4741850900393 923) rotate(0 42.692680999402796 43.33364490494745)"><path d="M-0.67 -0.27 C13.65 14.13, 71.22 72.65, 85.48 87.33 M1.18 -1.45 C15.38 12.51, 70.8 70.97, 84.58 85.55" stroke="#1e1e1e" stroke-width="2" fill="none"></path></g></g><mask></mask><g stroke-linecap="round" transform="translate(132 10) rotate(0 219.5 148.5)"><path d="M250.34 2.55 C270.25 2.08, 292.93 7.38, 311.8 13.13 C330.67 18.87, 348.13 27.63, 363.58 37 C379.02 46.37, 393.39 57.66, 404.45 69.33 C415.51 81, 424.01 93.66, 429.93 107.01 C435.85 120.36, 439.85 135.4, 439.99 149.42 C440.13 163.44, 436.75 177.92, 430.76 191.14 C424.78 204.35, 415.38 216.99, 404.08 228.72 C392.77 240.45, 378.47 252.23, 362.91 261.5 C347.36 270.76, 329.44 278.52, 310.73 284.31 C292.03 290.1, 271.35 294.41, 250.7 296.22 C230.05 298.03, 207.43 297.45, 186.83 295.17 C166.24 292.89, 145.83 288.45, 127.13 282.53 C108.43 276.61, 90.06 268.7, 74.63 259.65 C59.2 250.6, 45.41 239.72, 34.54 228.22 C23.67 216.72, 15.12 203.96, 9.41 190.66 C3.7 177.36, 0.51 162.5, 0.31 148.42 C0.11 134.34, 2.36 119.56, 8.2 106.17 C14.05 92.78, 23.91 79.77, 35.38 68.09 C46.85 56.4, 61.44 45.08, 77.02 36.04 C92.59 27.01, 110.19 19.61, 128.84 13.88 C147.49 8.15, 165.07 3.18, 188.91 1.67 C212.75 0.15, 255.07 3.34, 271.89 4.79 C288.7 6.23, 290.8 7.9, 289.81 10.32 M228.09 1.37 C247.86 -0.74, 270.57 3.1, 290.44 7.19 C310.31 11.28, 330.5 17.98, 347.33 25.91 C364.16 33.85, 378.58 43.5, 391.43 54.81 C404.28 66.11, 416.82 80.77, 424.45 93.73 C432.08 106.7, 435.52 119.07, 437.22 132.59 C438.91 146.1, 438.24 160.93, 434.61 174.81 C430.98 188.69, 424.68 203.04, 415.43 215.89 C406.18 228.74, 393.46 241.88, 379.11 251.89 C364.77 261.91, 347.27 269.15, 329.35 275.98 C311.43 282.81, 291.41 289.33, 271.61 292.88 C251.81 296.44, 231.26 298.07, 210.57 297.32 C189.87 296.56, 167.14 293.12, 147.46 288.35 C127.77 283.57, 109.19 276.59, 92.44 268.66 C75.68 260.73, 59.66 251.69, 46.92 240.77 C34.17 229.85, 23.83 215.89, 15.96 203.12 C8.1 190.35, 1.88 177.96, -0.28 164.17 C-2.44 150.37, -1.03 134.03, 3 120.38 C7.02 106.72, 14.29 94.59, 23.88 82.22 C33.46 69.84, 46.32 56.41, 60.51 46.12 C74.69 35.83, 91.18 27.55, 108.99 20.46 C126.8 13.38, 147.08 6.86, 167.35 3.62 C187.62 0.37, 220.11 0.88, 230.61 1 C241.1 1.12, 230.65 1.99, 230.34 4.34" stroke="#1e1e1e" stroke-width="2" fill="none"></path></g><g transform="translate(287.0067287048457 140.9946429937977) rotate(0 64.28333282470703 17.5)"><text x="64.28333282470703" y="24.528" font-family="Virgil, Segoe UI Emoji" font-size="28px" fill="#1e1e1e" text-anchor="middle" style="white-space: pre;" direction="ltr" dominant-baseline="alphabetic">Upstream</text></g><g stroke-linecap="round"><g transform="translate(426 453) rotate(0 0 -71)"><path d="M-0.45 0.75 C-0.55 -23.15, 0.17 -118.68, 0.38 -142.61 M1.52 0.1 C1.21 -23.73, -0.19 -117.72, -0.37 -141.4" stroke="#1e1e1e" stroke-width="2" fill="none"></path></g></g><mask></mask><g stroke-linecap="round"><g transform="translate(260 450) rotate(0 0 -70)"><path d="M0.34 0.99 C0.25 -22.21, -0.56 -116.28, -0.45 -139.66 M-0.95 0.47 C-1.24 -23.08, -1.91 -117.98, -1.63 -141.6" stroke="#1e1e1e" stroke-width="2" fill="none"></path></g></g><mask></mask></svg>