<?xml version="1.0" encoding="UTF-8" standalone="no"?><!DOCTYPE svg PUBLIC "-//W3C//DTD SVG 1.1//EN" "http://www.w3.org/Graphics/SVG/1.1/DTD/svg11.dtd"><svg width="100%" height="100%" viewBox="0 0 256 256" version="1.1" xmlns="http://www.w3.org/2000/svg" xmlns:xlink="http://www.w3.org/1999/xlink" xml:space="preserve" xmlns:serif="http://www.serif.com/" style="fill-rule:evenodd;clip-rule:evenodd;stroke-linejoin:round;stroke-miterlimit:2;"><rect x="0" y="0" width="256" height="256" style="fill:#1772cf;"/><g><rect x="172.255" y="113.773" width="12.639" height="6.32" style="fill:#dbe3ec;fill-rule:nonzero;"/><path d="M172.256,151.708l-3.16,-0l0,-3.16l-6.32,-0l0,6.32l3.16,-0l0,3.16l3.16,-0l-0,3.16l6.32,-0l-0,-6.32l-3.16,-0l0,-3.16Z" style="fill:#dbe3ec;fill-rule:nonzero;"/><path d="M169.094,75.838l0,3.16l-3.159,-0l-0,3.16l-3.16,-0l-0,6.32l6.32,-0l-0,-3.16l3.16,-0l-0,-3.16l3.159,-0l0,-6.32l-6.32,-0Z" style="fill:#dbe3ec;fill-rule:nonzero;"/><path d="M165.935,139.068l-0,-37.935l-6.32,-0l-0,-6.336l-6.32,0l-0,-6.32l-6.336,0l0,-6.32l-12.64,0l-3.159,0.001l-22.136,-0l0,6.32l-6.32,-0l0,6.32l-6.32,-0l0,6.336l-6.32,-0l0,37.935l6.32,-0l0,6.32l6.32,-0l0,6.32l6.32,-0l0,3.159l0.001,3.159l0,6.32l3.176,-0l0,3.16l3.16,-0l0,3.16l9.48,-0l0,3.16l3.159,-0.001l6.32,-0l0,-3.16l9.481,-0l-0,-6.32l3.159,-0l0,-12.639l6.336,-0l0,-6.32l6.32,-0l0,-6.32l3.16,-0l3.159,0.001Zm-22.136,-50.591l0,6.32l6.336,0l0,3.16l3.16,0l0,6.336l6.32,-0l0,3.16l-6.32,-0l0,-3.16l-3.16,-0l0,-6.336l-6.336,0l0,-3.16l-3.159,0l-0,-6.32l3.159,0Zm-12.64,79.03l0,-9.48l3.16,0l0,-9.48l3.16,-0l0,-9.48l-3.16,-0l0,3.16l-3.16,0.001l-9.48,-0l0,-3.16l-3.16,-0l0,9.48l3.16,-0l0,6.32l0.001,3.159l3.16,0l0,9.48l-3.16,0l0,-9.48l-3.16,0l0,-9.48l-3.16,-0l0,-9.48l-6.335,-0l-0,-3.176l-3.16,-0l-0,-3.16l3.16,0l-0,-3.16l3.176,0l-0,-3.16l6.32,0l-0,3.16l3.159,0l0,9.496l3.16,0l3.16,0.001l6.32,-0l-0,-9.496l3.159,0l0,-3.16l6.32,0l0,3.16l3.16,0l0,3.16l3.176,-0l0,3.16l-3.176,-0l0,3.176l-6.32,-0l0,9.48l-3.16,-0l0,9.479l-3.159,0l-0,9.48l-3.161,0Z" style="fill:#dbe3ec;fill-rule:nonzero;"/><path d="M140.64,135.891l6.32,0l0,-3.159l-3.16,-0l0,-3.16l-6.32,0l0,9.496l3.16,-0l0,-3.177Z" style="fill:#dbe3ec;fill-rule:nonzero;"/><rect x="134.32" y="180.162" width="9.48" height="3.16" style="fill:#dbe3ec;fill-rule:nonzero;"/><rect x="134.32" y="173.826" width="9.48" height="3.16" style="fill:#dbe3ec;fill-rule:nonzero;"/><path d="M134.319,189.643l-9.479,-0l0,-3.16l-9.48,-0l0,3.16l3.16,-0l0,3.16l18.959,-0l0,-3.16l3.16,-0l0,-3.16l-6.32,-0l0,3.16Z" style="fill:#dbe3ec;fill-rule:nonzero;"/><rect x="124.841" y="183.322" width="9.479" height="3.16" style="fill:#dbe3ec;fill-rule:nonzero;"/><rect x="124.841" y="176.986" width="9.479" height="3.176" style="fill:#dbe3ec;fill-rule:nonzero;"/><rect x="124.841" y="63.198" width="6.319" height="12.639" style="fill:#dbe3ec;fill-rule:nonzero;"/><rect x="115.361" y="180.162" width="9.48" height="3.16" style="fill:#dbe3ec;fill-rule:nonzero;"/><rect x="115.361" y="173.826" width="9.48" height="3.16" style="fill:#dbe3ec;fill-rule:nonzero;"/><path d="M118.522,132.732l-0,-3.16l-6.32,-0l-0,3.16l-3.176,-0l-0,3.159l6.335,-0l0,3.177l3.16,-0l0.001,-6.336Z" style="fill:#dbe3ec;fill-rule:nonzero;"/><rect x="112.201" y="183.322" width="3.16" height="3.16" style="fill:#dbe3ec;fill-rule:nonzero;"/><rect x="112.201" y="176.986" width="3.16" height="3.176" style="fill:#dbe3ec;fill-rule:nonzero;"/><rect x="112.201" y="170.667" width="3.16" height="3.16" style="fill:#dbe3ec;fill-rule:nonzero;"/><path d="M86.906,148.548l-0,3.16l-3.16,0l-0,3.16l-3.16,0l-0,6.32l6.32,0l-0,-3.16l3.16,0l-0,-3.16l3.159,0l-0,-6.32l-6.319,0Z" style="fill:#dbe3ec;fill-rule:nonzero;"/><path d="M83.746,85.318l3.16,0l0,3.16l6.319,0l0,-6.32l-3.159,0l-0,-3.16l-3.16,0l0,-3.159l-6.32,-0l0,6.32l3.16,-0l0,3.159Z" style="fill:#dbe3ec;fill-rule:nonzero;"/><rect x="71.106" y="113.772" width="12.64" height="6.32" style="fill:#dbe3ec;fill-rule:nonzero;"/></g></svg>